HIERARCHY
ROOT pelvis
{
  OFFSET 0 100 0
  CHANNELS 6 Xposition Yposition Zposition Zrotation Xrotation Yrotation
  JOINT pelvis_right_femur
  {
    OFFSET -10.78128 -3.44521 -0.5502486
    CHANNELS 3 Zrotation Xrotation Yrotation
    JOINT right_femur_tibia
    {
      OFFSET -0.8047443 -44.0398 -0.1307829
      CHANNELS 3 Zrotation Xrotation Yrotation
      JOINT right_tibia_foot
      {
        OFFSET 3.006224 -47.83518 -5
        CHANNELS 3 Zrotation Xrotation Yrotation
        End Site
        {
          OFFSET 0 -5 15
        }
      }
    }
  }
  JOINT pelvis_left_femur
  {
    OFFSET 10.78128 -3.44521 -0.5502486
    CHANNELS 3 Zrotation Xrotation Yrotation
    JOINT left_femur_tibia
    {
      OFFSET 0.8047443 -44.0398 -0.1307829
      CHANNELS 3 Zrotation Xrotation Yrotation
      JOINT left_tibia_foot
      {
        OFFSET -4.370144 -48.10324 -4.275266
        CHANNELS 3 Zrotation Xrotation Yrotation
        End Site
        {
          OFFSET 0 -5 15
        }
      }
    }
  }
  JOINT pelvis_spine1
  {
    OFFSET 0 6.468898 -3.129235
    CHANNELS 3 Zrotation Xrotation Yrotation
    JOINT spine1
    {
      OFFSET 0 23.15396 4.99043
      CHANNELS 3 Zrotation Xrotation Yrotation
      JOINT spine2
      {
        OFFSET 0 20.79997 -5.064912
        CHANNELS 3 Zrotation Xrotation Yrotation
        JOINT neck
        {
          OFFSET 0 14.38658 9.616178
          CHANNELS 3 Zrotation Xrotation Yrotation
          End Site
          {
            OFFSET 0 20 0
          }
        }
      }
      JOINT right_manubrium
      {
        OFFSET -5.722621 16.35077 3.967754
        CHANNELS 3 Zrotation Xrotation Yrotation
        JOINT right_clavicle
        {
          OFFSET -13.16364 1.694482 -4.693211
          CHANNELS 3 Zrotation Xrotation Yrotation
          JOINT right_humerus
          {
            OFFSET -28.5034 -0.3100689 -2.792744
            CHANNELS 3 Zrotation Xrotation Yrotation
            JOINT right_radius
            {
              OFFSET -25.15693 0.02248979 -1.271978
              CHANNELS 3 Zrotation Xrotation Yrotation
              End Site
              {
                OFFSET -15 0 0
              }
            }
          }
        }
      }
      JOINT left_manubrium
      {
        OFFSET 5.722621 16.35077 3.967754
        CHANNELS 3 Zrotation Xrotation Yrotation
        JOINT left_clavicle
        {
          OFFSET 13.16364 1.694482 -4.693211
          CHANNELS 3 Zrotation Xrotation Yrotation
          JOINT left_humerus
          {
            OFFSET 29.39168 -1.063119 -2.237045
            CHANNELS 3 Zrotation Xrotation Yrotation
            JOINT left_radius
            {
              OFFSET 24.59957 -0.9528479 0.9047498
              CHANNELS 3 Zrotation Xrotation Yrotation
              End Site
              {
                OFFSET 15 -0 -0
              }
            }
          }
        }
      }
    }
  }
}
MOTION
Frames: 9
Frame Time: 0.0416666666667
-204.9044 99.06073 619.4955 -11.19116 -9.630465 -70.53069 0.1534315 -17.78262 -16.19253 -0 2.677359 -0 -21.55508 22.25177 9.957648 -3.841782 8.069779 0.9411179 -0 33.1279 -0 14.69472 -12.82964 23.19852 -5.860274 -1.818717 5.371779 -0.06407178 20.21301 -10.25412 -2.613542 20.16153 6.576239 17.23495 -9.904761 -7.83345 4.21782 -18.79784 15.81694 89.41575 29.8619 -22.80858 -0 0 16.73413 -32.18537 4.158554 -5.285966 13.32177 -40.63619 -17.03044 -91.79352 -25.22536 1.760188 0 0 -8.79994 40.30268 -4.514553 -58.23507
-210.7615 98.92887 621.7831 -13.34625 -9.865092 -72.70251 1.090718 -15.33448 -15.40068 -0 3.853035 -0 -22.48369 23.22889 9.054748 -3.313327 7.554022 1.999064 -0 36.62108 -0 14.04844 -11.86249 23.17213 -5.36292 -1.750749 5.586857 -0.3377192 20.87578 -10.35614 -2.540644 20.2606 5.804839 17.30404 -9.156473 -8.77333 2.940104 -19.8928 15.84747 90.7877 26.5774 -23.23778 -0 0 17.62367 -32.10105 3.080039 -6.291739 12.40343 -40.92391 -18.58912 -91.69585 -24.89142 3.378836 0 0 -7.552001 39.05642 -3.652856 -56.79862
-216.7625 98.96867 623.8251 -16.26165 -10.41377 -75.02839 1.871779 -12.31684 -14.55329 -0 5.871595 -0 -23.95092 24.80422 8.182617 -2.70063 7.013308 3.338374 -0 39.53761 -0 14.27299 -10.53529 23.84455 -5.053134 -1.709342 5.92722 -0.7026671 22.02732 -10.57696 -2.509078 20.33537 4.734182 17.79225 -7.864863 -10.42935 1.689167 -21.44794 16.02193 92.32093 22.88518 -23.63336 -0 0 19.05403 -32.21644 1.621204 -7.76391 11.22552 -41.6175 -20.92456 -91.76518 -25.50405 5.116023 0 0 -5.699764 38.00975 -3.474434 -56.16732
-222.8093 99.20415 625.6183 -19.61467 -10.91035 -77.46757 2.577454 -9.04017 -13.23798 -0 9.057688 -0 -25.68107 26.49725 7.161559 -1.996697 6.517533 4.698945 -0 41.23175 -0 15.15069 -8.868412 24.94623 -4.804032 -1.73362 6.375302 -1.036848 23.50799 -10.94993 -2.497793 20.2936 3.379041 18.42464 -6.353623 -12.49971 0.5465038 -23.5663 16.28045 93.93898 18.86145 -23.9534 -0 0 21.09067 -32.05494 -0.1652946 -9.415353 9.679955 -42.36472 -23.72491 -91.73414 -26.37394 7.542708 0 0 -3.414423 36.81091 -3.565379 -55.38603
-228.7938 99.66695 627.1959 -22.60182 -10.85744 -79.86484 3.275744 -5.771059 -11.03857 -0 13.38971 -0 -26.99365 27.22436 5.677007 -1.194051 5.926401 5.592166 -0 41.13105 -0 16.09255 -6.911868 25.85058 -4.403727 -1.88407 6.879569 -1.177167 24.88806 -11.40645 -2.452651 20.06572 1.896423 18.58736 -5.17632 -14.22565 -0.3753743 -26.15893 16.48688 95.40363 14.89218 -24.03102 -0 0 23.5742 -31.01387 -1.937142 -10.4821 7.81604 -42.48332 -26.13954 -91.28322 -26.2814 11.29727 0 0 -1.112659 34.95701 -3.164206 -52.92071
-234.6512 100.3466 628.6231 -24.35541 -9.995885 -82.04027 3.921969 -2.697911 -8.090276 -0 18.10079 -0 -27.22564 26.05838 3.652048 -0.3477691 5.048814 5.633322 -0 39.04126 -0 16.47549 -4.917434 25.97362 -3.735871 -2.199052 7.344863 -1.055393 25.66996 -11.76099 -2.31344 19.69634 0.5729321 17.72112 -4.772444 -14.79341 -1.041078 -28.82414 16.49037 96.43659 11.56372 -23.67187 -0 0 26.03722 -28.93931 -3.098958 -10.16212 5.971454 -41.48397 -27.18946 -90.46617 -24.35668 16.22497 -0 0 0.5834356 32.24489 -1.760734 -47.92871
-240.3929 101.1742 629.9704 -24.33256 -8.411189 -83.89972 4.434041 0.1711653 -5.033992 -0 21.80925 -0 -26.05632 22.56455 1.394537 0.4885035 3.492113 4.739946 -0 35.53627 -0 15.82828 -3.231526 25.07958 -2.850798 -2.597736 7.686537 -0.7631152 25.46424 -11.74711 -2.040707 19.32141 -0.2411285 15.70702 -5.341225 -13.73791 -1.442322 -30.91321 16.20151 96.70998 9.661506 -22.70161 -0 0 27.94048 -26.30671 -2.938456 -8.118828 4.588866 -39.27864 -26.2702 -89.7926 -20.50623 21.34589 -0 0 1.317313 28.82006 0.6207471 -40.73794
-246.0883 102.0117 631.2859 -22.71205 -6.495405 -85.47153 4.734049 2.971776 -2.569143 -0 23.50781 -0 -23.8066 17.15605 -0.5201363 1.269232 0.9379444 3.203339 -0 31.54241 -0 14.12564 -2.03101 23.46739 -1.938184 -2.909861 7.883049 -0.4803859 24.26636 -11.21275 -1.655945 19.0855 -0.3684107 13.04926 -6.720963 -11.33771 -1.549111 -31.9714 15.67091 96.03118 9.665308 -21.09225 -0 0 29.03694 -23.96734 -1.228113 -4.802472 3.830903 -36.23985 -23.68145 -89.70198 -15.48704 25.63851 -0 0 1.273271 25.08445 3.464444 -32.63358
-251.8096 102.7024 632.5908 -20.20914 -4.66671 -86.82986 4.80686 5.772812 -0.9540843 -0 23.37352 -0 -21.16468 10.91936 -1.696491 1.928675 -2.423223 1.45905 -0 27.61587 -0 11.76447 -1.252119 21.67885 -1.164454 -3.044974 7.964318 -0.305372 22.45287 -10.26967 -1.231683 19.04342 0.05633936 10.43638 -8.496211 -8.361847 -1.373772 -32.07955 15.0331 94.54832 11.24742 -19.01128 -0 0 29.4669 -22.46362 1.475278 -1.03531 3.516371 -32.94182 -20.32305 -90.18409 -10.26921 28.78646 -0 0 0.8854903 21.43163 6.196422 -24.85634
